<?xml version="1.0" encoding="UTF-8" standalone="no" ?>
<!DOCTYPE svg PUBLIC "-//W3C//DTD SVG 1.1//EN" "http://www.w3.org/Graphics/SVG/1.1/DTD/svg11.dtd">
<svg xmlns="http://www.w3.org/2000/svg" xmlns:xlink="http://www.w3.org/1999/xlink" version="1.1" width="144" height="144" viewBox="0 0 144 144" xml:space="preserve">
<desc>Created with Fabric.js 5.2.4</desc>
<defs>
</defs>
<g transform="matrix(Infinity NaN NaN Infinity 0 0)" id="cb4dcc32-a8ed-482c-95cc-887096669166"  >
</g>
<g transform="matrix(1 0 0 1 72 72)" id="c1defd73-a398-4bea-90e9-bced8e66c4dc"  >
<rect style="stroke: none; stroke-width: 1; stroke-dasharray: none; stroke-linecap: butt; stroke-dashoffset: 0; stroke-linejoin: miter; stroke-miterlimit: 4; fill: rgb(255,255,255); fill-rule: nonzero; opacity: 1; visibility: hidden;" vector-effect="non-scaling-stroke"  x="-72" y="-72" rx="0" ry="0" width="144" height="144" />
</g>
<g transform="matrix(0.13 0 0 0.13 72 72)"  >
<g style="" vector-effect="non-scaling-stroke"   >
		<g transform="matrix(1 0 0 1 0 0)"  >
<path style="stroke: none; stroke-width: 0.06; stroke-dasharray: none; stroke-linecap: butt; stroke-dashoffset: 0; stroke-linejoin: miter; stroke-miterlimit: 5; fill: rgb(255,254,255); fill-rule: nonzero; opacity: 1;" vector-effect="non-scaling-stroke"  transform=" translate(-379.95, -597.54)" d="M 12.080186 455.00236 L 747.82359 455.00236 C 768.82579 455.00236 785.84869 472.02528 785.84869 492.93919 L 785.84869 702.14402 C 785.84869 723.10215 768.82579 740.08074 747.82359 740.08074 L 12.080186 740.08074 C -8.9220743 740.08074 -25.944984 723.10215 -25.944984 702.14402 L -25.944984 492.93919 C -25.944984 472.02528 -8.9220743 455.00236 12.080186 455.00236" stroke-linecap="round" />
</g>
		<g transform="matrix(1 0 0 1 0 0)"  >
<path style="stroke: rgb(255,254,255); stroke-width: 38.6; stroke-dasharray: none; stroke-linecap: butt; stroke-dashoffset: 0; stroke-linejoin: miter; stroke-miterlimit: 3.86; fill: none; fill-rule: nonzero; opacity: 1;" vector-effect="non-scaling-stroke"  transform=" translate(-379.95, -597.54)" d="M 12.080186 455.00236 L 747.82359 455.00236 C 768.82579 455.00236 785.84869 472.02528 785.84869 492.93919 L 785.84869 702.14402 C 785.84869 723.10215 768.82579 740.08074 747.82359 740.08074 L 12.080186 740.08074 C -8.9220743 740.08074 -25.944984 723.10215 -25.944984 702.14402 L -25.944984 492.93919 C -25.944984 472.02528 -8.9220743 455.00236 12.080186 455.00236 z" stroke-linecap="round" />
</g>
		<g transform="matrix(1 0 0 1 0 0)"  >
<path style="stroke: none; stroke-width: 0.06; stroke-dasharray: none; stroke-linecap: butt; stroke-dashoffset: 0; stroke-linejoin: miter; stroke-miterlimit: 5; fill: rgb(15,92,167); fill-rule: nonzero; opacity: 1;" vector-effect="non-scaling-stroke"  transform=" translate(-379.95, -597.54)" d="M 12.080186 455.00236 L 747.82359 455.00236 C 768.82579 455.00236 785.84869 472.02528 785.84869 492.93919 L 785.84869 702.14402 C 785.84869 723.10215 768.82579 740.08074 747.82359 740.08074 L 12.080186 740.08074 C -8.9220743 740.08074 -25.944984 723.10215 -25.944984 702.14402 L -25.944984 492.93919 C -25.944984 472.02528 -8.9220743 455.00236 12.080186 455.00236" stroke-linecap="round" />
</g>
		<g transform="matrix(1 0 0 1 -268.39 -28.07)"  >
<path style="stroke: none; stroke-width: 0.06; stroke-dasharray: none; stroke-linecap: butt; stroke-dashoffset: 0; stroke-linejoin: miter; stroke-miterlimit: 5; fill: rgb(255,254,255); fill-rule: evenodd; opacity: 1;" vector-effect="non-scaling-stroke"  transform=" translate(-111.56, -569.48)" d="M 134.77782 560.01384 C 134.77782 546.48391 125.93469 541.42121 112.6701 541.42121 L 88.351636 541.42121 L 88.351636 597.53055 L 103.60596 597.53055 L 103.60596 579.35804 L 111.56473 579.35804 C 125.05044 579.35804 134.77782 574.29535 134.77782 560.01384 z M 119.08138 560.25696 C 119.08138 564.50163 117.09166 566.66825 112.00686 566.66825 L 103.60596 566.66825 L 103.60596 554.11112 L 112.22797 554.11112 C 117.31278 554.11112 119.08138 556.58708 119.08138 560.25696" stroke-linecap="round" />
</g>
		<g transform="matrix(1 0 0 1 -217.98 -28.07)"  >
<path style="stroke: none; stroke-width: 0.06; stroke-dasharray: none; stroke-linecap: butt; stroke-dashoffset: 0; stroke-linejoin: miter; stroke-miterlimit: 5; fill: rgb(255,254,255); fill-rule: evenodd; opacity: 1;" vector-effect="non-scaling-stroke"  transform=" translate(-161.97, -569.48)" d="M 190.48915 597.53055 L 169.92902 541.42121 L 154.01147 541.42121 L 133.45134 597.53055 L 150.47426 597.53055 L 153.34823 587.6705 L 170.37115 587.6705 L 173.46623 597.53055 L 190.48915 597.53055 z M 166.61282 575.33438 L 157.32756 575.33438 L 158.21192 571.64249 C 160.20164 564.50163 161.307 561.38454 161.97024 557.62622 C 162.63348 561.38454 163.51774 564.41329 165.50746 571.64249 L 166.61282 575.33438" stroke-linecap="round" />
</g>
		<g transform="matrix(1 0 0 1 -166.58 -28.07)"  >
<path style="stroke: none; stroke-width: 0.06; stroke-dasharray: none; stroke-linecap: butt; stroke-dashoffset: 0; stroke-linejoin: miter; stroke-miterlimit: 5; fill: rgb(255,254,255); fill-rule: nonzero; opacity: 1;" vector-effect="non-scaling-stroke"  transform=" translate(-213.37, -569.48)" d="M 242.22104 541.42121 L 224.31387 541.42121 L 219.8923 549.93267 C 216.79722 555.76916 214.36537 561.14131 213.48112 564.41329 C 212.37576 561.14131 209.94391 555.76916 207.06984 549.93267 L 202.64838 541.42121 L 184.52009 541.42121 L 205.52235 576.85986 L 205.52235 597.53055 L 221.21878 597.53055 L 221.21878 576.61664 L 242.22104 541.42121" stroke-linecap="round" />
</g>
		<g transform="matrix(1 0 0 1 -106.67 -28.07)"  >
<path style="stroke: none; stroke-width: 0.06; stroke-dasharray: none; stroke-linecap: butt; stroke-dashoffset: 0; stroke-linejoin: miter; stroke-miterlimit: 5; fill: rgb(255,254,255); fill-rule: evenodd; opacity: 1;" vector-effect="non-scaling-stroke"  transform=" translate(-273.28, -569.48)" d="M 297.49024 579.42438 C 297.49024 573.10154 294.39516 569.16643 289.31045 566.99981 C 293.06868 564.83331 296.16376 562.11401 296.16376 556.0344 C 296.16376 546.63869 290.41582 541.42121 276.26687 541.42121 L 249.07445 541.42121 L 249.07445 597.53055 L 276.26687 597.53055 C 290.41582 597.53055 297.49024 590.89825 297.49024 579.42438 z M 280.68844 558.11256 C 280.68844 560.74341 279.36196 562.51202 275.82475 562.51202 L 264.10765 562.51202 L 264.10765 553.691 L 275.82475 553.691 C 279.58307 553.691 280.68844 555.61438 280.68844 558.11256 z M 282.01492 579.75595 C 282.01492 582.93948 280.24631 585.28288 276.48799 585.28288 L 264.10765 585.28288 L 264.10765 574.3838 L 276.48799 574.3838 C 280.24631 574.3838 282.01492 576.46196 282.01492 579.75595" stroke-linecap="round" />
</g>
		<g transform="matrix(1 0 0 1 -50.18 -28.07)"  >
<path style="stroke: none; stroke-width: 0.06; stroke-dasharray: none; stroke-linecap: butt; stroke-dashoffset: 0; stroke-linejoin: miter; stroke-miterlimit: 5; fill: rgb(255,254,255); fill-rule: evenodd; opacity: 1;" vector-effect="non-scaling-stroke"  transform=" translate(-329.77, -569.48)" d="M 358.28638 597.53055 L 337.72625 541.42121 L 321.80869 541.42121 L 301.24857 597.53055 L 318.27148 597.53055 L 321.14545 587.6705 L 338.16837 587.6705 L 341.26346 597.53055 L 358.28638 597.53055 z M 334.41005 575.33438 L 325.12479 575.33438 L 326.00915 571.64249 C 328.21988 564.50163 329.10423 561.38454 329.76747 557.62622 C 330.43071 561.38454 331.31496 564.41329 333.30468 571.64249 L 334.41005 575.33438" stroke-linecap="round" />
</g>
		<g transform="matrix(1 0 0 1 6.3 -28.05)"  >
<path style="stroke: none; stroke-width: 0.06; stroke-dasharray: none; stroke-linecap: butt; stroke-dashoffset: 0; stroke-linejoin: miter; stroke-miterlimit: 5; fill: rgb(255,254,255); fill-rule: nonzero; opacity: 1;" vector-effect="non-scaling-stroke"  transform=" translate(-386.25, -569.49)" d="M 410.90262 583.91217 L 397.63803 576.9262 C 394.54294 582.23201 392.33211 584.88497 387.46842 584.88497 C 380.61511 584.88497 377.96215 578.05367 377.96215 569.49799 C 377.96215 560.58863 380.83612 554.11112 387.24741 554.11112 C 392.55322 554.11112 394.54294 557.38299 396.53266 562.60046 L 410.6815 557.07353 C 406.70217 546.48391 401.39635 540.55907 387.46842 540.55907 C 372.21421 540.55907 361.60247 551.45816 361.60247 569.49799 C 361.60247 586.07879 370.4456 598.4148 387.24741 598.4148 C 400.73311 598.4148 407.14429 591.27404 410.90262 583.91217" stroke-linecap="round" />
</g>
		<g transform="matrix(1 0 0 1 65.22 -28.07)"  >
<path style="stroke: none; stroke-width: 0.06; stroke-dasharray: none; stroke-linecap: butt; stroke-dashoffset: 0; stroke-linejoin: miter; stroke-miterlimit: 5; fill: rgb(255,254,255); fill-rule: nonzero; opacity: 1;" vector-effect="non-scaling-stroke"  transform=" translate(-445.17, -569.48)" d="M 471.25652 597.53055 L 452.24399 561.22976 L 469.2668 541.42121 L 450.25427 541.42121 L 445.8327 547.12504 C 442.07438 551.67927 437.21069 558.1789 434.77884 561.87089 C 434.99996 557.78089 434.99996 552.74041 434.99996 548.00939 L 434.99996 541.42121 L 419.08241 541.42121 L 419.08241 597.53055 L 434.99996 597.53055 L 434.99996 580.61819 L 440.96901 573.65422 L 452.68612 597.53055 L 471.25652 597.53055" stroke-linecap="round" />
</g>
		<g transform="matrix(1 0 0 1 -318.25 -42.25)"  >
<path style="stroke: none; stroke-width: 3.69; stroke-dasharray: none; stroke-linecap: butt; stroke-dashoffset: 0; stroke-linejoin: miter; stroke-miterlimit: 3.86; fill: rgb(255,254,255); fill-rule: nonzero; opacity: 1;" vector-effect="non-scaling-stroke"  transform=" translate(-61.7, -555.3)" d="M 61.8125 538.71875 C 52.641525 538.71875 45.15625 546.15419 45.15625 555.3125 C 45.15625 564.43195 52.638201 571.875 61.8125 571.875 C 70.793408 571.875 78.249997 564.43194 78.25 555.3125 C 78.25 546.15419 70.789993 538.71874 61.8125 538.71875 z M 61.8125 542.40625 C 68.752566 542.40624 74.5625 548.15525 74.5625 555.3125 C 74.562498 562.41995 68.749152 568.1875 61.8125 568.1875 C 54.627219 568.1875 48.84375 562.41995 48.84375 555.3125 C 48.84375 548.15525 54.623895 542.40625 61.8125 542.40625 z" stroke-linecap="round" />
</g>
		<g transform="matrix(1 0 0 1 161.93 -69.68)"  >
<path style="stroke: none; stroke-width: 3.69; stroke-dasharray: none; stroke-linecap: butt; stroke-dashoffset: 0; stroke-linejoin: miter; stroke-miterlimit: 3.86; fill: rgb(255,254,255); fill-rule: nonzero; opacity: 1;" vector-effect="non-scaling-stroke"  transform=" translate(-541.89, -527.86)" d="M 541.78125 497.09375 C 524.65469 497.09375 510.53126 510.85927 510.53125 527.84375 C 510.53125 544.84892 524.6547 558.62501 541.78125 558.625 C 559.11547 558.625 573.25001 544.84893 573.25 527.84375 C 573.25 510.85927 559.11548 497.09375 541.78125 497.09375 z M 541.78125 500.78125 C 557.1664 500.78125 569.5625 512.90467 569.5625 527.84375 C 569.56251 542.80634 557.16639 554.9375 541.78125 554.9375 C 526.63048 554.93751 514.21875 542.80634 514.21875 527.84375 C 514.21876 512.90468 526.63047 500.78125 541.78125 500.78125 z" stroke-linecap="round" />
</g>
		<g transform="matrix(1 0 0 1 232.68 -69.68)"  >
<path style="stroke: none; stroke-width: 3.69; stroke-dasharray: none; stroke-linecap: butt; stroke-dashoffset: 0; stroke-linejoin: miter; stroke-miterlimit: 3.86; fill: rgb(255,254,255); fill-rule: nonzero; opacity: 1;" vector-effect="non-scaling-stroke"  transform=" translate(-612.64, -527.86)" d="M 612.53125 497.09375 C 595.40478 497.09375 581.28122 510.85926 581.28125 527.84375 C 581.28125 544.84893 595.40476 558.62501 612.53125 558.625 C 629.86547 558.625 643.99997 544.84892 644 527.84375 C 644 510.85926 629.86544 497.09375 612.53125 497.09375 z M 612.53125 500.78125 C 627.91635 500.78125 640.3125 512.90468 640.3125 527.84375 C 640.31248 542.80634 627.91637 554.9375 612.53125 554.9375 C 597.38055 554.93751 584.96875 542.80633 584.96875 527.84375 C 584.96872 512.90469 597.38058 500.78125 612.53125 500.78125 z" stroke-linecap="round" />
</g>
		<g transform="matrix(1 0 0 1 303.55 -69.59)"  >
<path style="stroke: none; stroke-width: 0.17; stroke-dasharray: none; stroke-linecap: butt; stroke-dashoffset: 0; stroke-linejoin: miter; stroke-miterlimit: 3.86; fill: rgb(255,254,255); fill-rule: nonzero; opacity: 1;" vector-effect="non-scaling-stroke"  transform=" translate(-683.5, -527.95)" d="M 683.5 497.75 C 666.46452 497.75 652.81252 511.26616 652.8125 527.96875 C 652.8125 544.62897 666.46338 558.15627 683.5 558.15625 C 700.32481 558.15625 714.18752 544.64083 714.1875 527.96875 C 714.1875 511.25433 700.32365 497.74999 683.5 497.75 z" stroke-linecap="round" />
</g>
		<g transform="matrix(1 0 0 1 303.55 -0.04)"  >
<path style="stroke: none; stroke-width: 0.17; stroke-dasharray: none; stroke-linecap: butt; stroke-dashoffset: 0; stroke-linejoin: miter; stroke-miterlimit: 3.86; fill: rgb(255,254,255); fill-rule: nonzero; opacity: 1;" vector-effect="non-scaling-stroke"  transform=" translate(-683.5, -597.5)" d="M 683.5 567.28125 C 666.46337 567.28125 652.81252 580.81855 652.8125 597.5 C 652.8125 614.16031 666.46339 627.71876 683.5 627.71875 C 700.3248 627.71875 714.18752 614.17217 714.1875 597.5 C 714.1875 580.80671 700.32482 567.28125 683.5 567.28125 z" stroke-linecap="round" />
</g>
		<g transform="matrix(1 0 0 1 303.55 69.69)"  >
<path style="stroke: none; stroke-width: 0.17; stroke-dasharray: none; stroke-linecap: butt; stroke-dashoffset: 0; stroke-linejoin: miter; stroke-miterlimit: 3.86; fill: rgb(255,254,255); fill-rule: nonzero; opacity: 1;" vector-effect="non-scaling-stroke"  transform=" translate(-683.5, -667.23)" d="M 683.5 637 C 666.46222 637 652.81252 650.5897 652.8125 667.25 C 652.8125 683.93137 666.46338 697.46872 683.5 697.46875 C 700.32481 697.46875 714.18752 683.94321 714.1875 667.25 C 714.1875 650.57785 700.32599 637.00001 683.5 637 z" stroke-linecap="round" />
</g>
		<g transform="matrix(1 0 0 1 161.93 -0.04)"  >
<path style="stroke: none; stroke-width: 3.69; stroke-dasharray: none; stroke-linecap: butt; stroke-dashoffset: 0; stroke-linejoin: miter; stroke-miterlimit: 3.86; fill: rgb(255,254,255); fill-rule: nonzero; opacity: 1;" vector-effect="non-scaling-stroke"  transform=" translate(-541.89, -597.5)" d="M 541.78125 566.71875 C 524.65469 566.71875 510.53126 580.49484 510.53125 597.5 C 510.53125 614.48448 524.6547 628.28126 541.78125 628.28125 C 559.11547 628.28125 573.25001 614.48449 573.25 597.5 C 573.25 580.49482 559.11548 566.71875 541.78125 566.71875 z M 541.78125 570.40625 C 557.1664 570.40625 569.5625 582.5374 569.5625 597.5 C 569.56251 612.43908 557.16639 624.59375 541.78125 624.59375 C 526.63048 624.59376 514.21875 612.43906 514.21875 597.5 C 514.21876 582.53742 526.63047 570.40625 541.78125 570.40625 z" stroke-linecap="round" />
</g>
		<g transform="matrix(1 0 0 1 232.69 -0.04)"  >
<path style="stroke: none; stroke-width: 0.17; stroke-dasharray: none; stroke-linecap: butt; stroke-dashoffset: 0; stroke-linejoin: miter; stroke-miterlimit: 3.86; fill: rgb(255,254,255); fill-rule: nonzero; opacity: 1;" vector-effect="non-scaling-stroke"  transform=" translate(-612.64, -597.5)" d="M 612.53125 567.28125 C 595.70648 567.28125 581.84372 580.80672 581.84375 597.5 C 581.84375 614.17216 595.70645 627.71876 612.53125 627.71875 C 629.56785 627.71875 643.43747 614.17217 643.4375 597.5 C 643.4375 580.80671 629.56782 567.28125 612.53125 567.28125 z" stroke-linecap="round" />
</g>
		<g transform="matrix(1 0 0 1 161.93 69.6)"  >
<path style="stroke: none; stroke-width: 3.69; stroke-dasharray: none; stroke-linecap: butt; stroke-dashoffset: 0; stroke-linejoin: miter; stroke-miterlimit: 3.86; fill: rgb(255,254,255); fill-rule: nonzero; opacity: 1;" vector-effect="non-scaling-stroke"  transform=" translate(-541.89, -667.14)" d="M 541.78125 636.375 C 524.65469 636.375 510.53126 650.15109 510.53125 667.15625 C 510.53125 684.16143 524.65638 697.90627 541.78125 697.90625 C 559.11381 697.90625 573.25001 684.16145 573.25 667.15625 C 573.25 650.15107 559.11548 636.375 541.78125 636.375 z M 541.78125 640.0625 C 557.1664 640.0625 569.5625 652.19365 569.5625 667.15625 C 569.56251 682.11887 557.16805 694.21875 541.78125 694.21875 C 526.6288 694.21877 514.21875 682.11885 514.21875 667.15625 C 514.21876 652.19367 526.63047 640.0625 541.78125 640.0625 z" stroke-linecap="round" />
</g>
		<g transform="matrix(1 0 0 1 232.68 69.6)"  >
<path style="stroke: none; stroke-width: 3.69; stroke-dasharray: none; stroke-linecap: butt; stroke-dashoffset: 0; stroke-linejoin: miter; stroke-miterlimit: 3.86; fill: rgb(255,254,255); fill-rule: nonzero; opacity: 1;" vector-effect="non-scaling-stroke"  transform=" translate(-612.64, -667.14)" d="M 612.53125 636.375 C 595.40478 636.375 581.28122 650.15108 581.28125 667.15625 C 581.28125 684.16144 595.40644 697.90627 612.53125 697.90625 C 629.8638 697.90625 643.99997 684.16144 644 667.15625 C 644 650.15107 629.86544 636.375 612.53125 636.375 z M 612.53125 640.0625 C 627.91635 640.0625 640.3125 652.19365 640.3125 667.15625 C 640.31248 682.11887 627.91804 694.21875 612.53125 694.21875 C 597.37886 694.21877 584.96875 682.11884 584.96875 667.15625 C 584.96872 652.19368 597.38058 640.0625 612.53125 640.0625 z" stroke-linecap="round" />
</g>
</g>
</g>
</svg>