<?xml version="1.0" encoding="utf-8"?>
<!-- Generator: Adobe Illustrator 15.1.0, SVG Export Plug-In . SVG Version: 6.00 Build 0)  -->
<!DOCTYPE svg PUBLIC "-//W3C//DTD SVG 1.1//EN" "http://www.w3.org/Graphics/SVG/1.1/DTD/svg11.dtd">
<svg version="1.1" id="Layer_1" xmlns="http://www.w3.org/2000/svg" xmlns:xlink="http://www.w3.org/1999/xlink" x="0px" y="0px"
	 width="1400px" height="980px" viewBox="0 0 1400 980" enable-background="new 0 0 1400 980" xml:space="preserve">
<g>
	<path d="M903.924,443.453c-0.166-3.642-3.165-6.511-6.811-6.511h-24.425c0.563-7.256,0.565-11.873,0.565-11.873h-69.305l0,0
		h-69.305c0,0,0,36.302,12.495,65.87c9.3,22.006,31.815,65.87,31.815,65.87h24.994l0,0h24.994c0,0,22.516-43.864,31.815-65.87
		c5.669-13.411,8.761-28.196,10.452-40.363h19.183c-0.173,15.994-3.013,44.93-15.182,57.102c-2.663,2.663-2.663,6.98,0,9.641
		c1.328,1.331,3.075,1.997,4.819,1.997s3.488-0.666,4.82-1.997C906.048,496.125,904.021,445.593,903.924,443.453z"/>
	<g>
		<g>
			<path d="M616.665,527.606h-20.664v-18.561h20.664c2.932,0,3.831-0.596,3.841-0.603c-0.023-0.02,0.353-0.762,0.353-3.588v-77.773
				c0-2.756-0.359-3.535-0.443-3.678c-0.08,0.053-0.902-0.513-3.751-0.513h-20.664v-18.557h20.664
				c6.843,0,22.751,2.217,22.751,22.748v77.773C639.416,525.39,623.508,527.606,616.665,527.606z"/>
		</g>
		<path d="M535.989,386.051h-60.012c0,157.566,0,157.566,0,159.228c0,12.249,7.347,13.471,13.475,13.471c6.121,0,46.537,0,46.537,0
			s40.416,0,46.541,0c6.125,0,13.471-1.222,13.471-13.471s0-159.228,0-159.228H535.989z M501.625,449.104
			c-0.842,0.293-1.754-0.149-2.043-0.988c-0.916-2.643-3.415-4.42-6.215-4.42c-3.621,0-6.57,2.949-6.57,6.577v61.093
			c0,0.889-0.719,1.607-1.604,1.607c-0.889,0-1.608-0.719-1.608-1.607v-61.093c0-5.396,4.391-9.786,9.783-9.786
			c4.167,0,7.882,2.643,9.247,6.577C502.906,447.903,502.46,448.815,501.625,449.104z M529.216,450.925
			c-0.862,0.097-1.678-0.529-1.778-1.411c-0.379-3.315-3.186-5.818-6.531-5.818c-3.625,0-6.574,2.949-6.574,6.577v61.093
			c0,0.889-0.716,1.607-1.604,1.607s-1.604-0.719-1.604-1.607v-61.093c0-5.396,4.387-9.786,9.783-9.786
			c4.977,0,9.157,3.725,9.72,8.665C530.73,450.03,530.094,450.826,529.216,450.925z M556.606,448.565
			c-0.812,0.346-1.757-0.037-2.104-0.852c-1.032-2.44-3.408-4.018-6.058-4.018c-3.625,0-6.574,2.949-6.574,6.577v61.093
			c0,0.889-0.716,1.607-1.604,1.607c-0.885,0-1.604-0.719-1.604-1.607v-61.093c0-5.396,4.387-9.786,9.783-9.786
			c3.941,0,7.479,2.343,9.014,5.975C557.805,447.281,557.426,448.223,556.606,448.565z M584.317,450.196
			c-0.869,0.17-1.714-0.383-1.894-1.251c-0.623-3.039-3.329-5.249-6.438-5.249c-3.625,0-6.574,2.949-6.574,6.577v61.093
			c0,0.889-0.719,1.607-1.604,1.607c-0.889,0-1.604-0.719-1.604-1.607v-61.093c0-5.396,4.387-9.786,9.783-9.786
			c4.627,0,8.658,3.285,9.583,7.815C585.745,449.171,585.186,450.017,584.317,450.196z M589.823,427.915H480.661v-36.921h109.162
			V427.915z"/>
		<g>
			<path d="M593.305,390.458c-0.303,0-0.609-0.043-0.916-0.133c-1.697-0.502-2.669-2.29-2.167-3.991
				c0.606-2.083,1.562-8.281-1.281-11.78c-5.283-6.504-12.865-2.493-13.185-2.317c-0.939,0.509-2.074,0.52-3.022,0.023
				c-0.945-0.496-1.584-1.435-1.701-2.497c-0.229-2.13-0.985-3.622-2.307-4.563c-2.636-1.88-7.16-1.391-8.678-1.048
				c-0.942,0.216-1.944-0.003-2.699-0.596c-5.845-4.561-11.217-6.464-15.991-5.649c-5.815,0.995-8.987,5.855-9.021,5.902
				c-0.589,0.922-1.621,1.498-2.713,1.498h-19.266c-23.17,0-27.701,21.633-27.884,22.555c-0.339,1.734-2.041,2.866-3.761,2.533
				c-1.737-0.339-2.876-2.014-2.543-3.751c0.053-0.276,5.645-27.757,34.188-27.757h17.658c1.831-2.213,5.882-6.178,12.146-7.29
				c6.308-1.108,13.019,0.909,19.979,6.021c2.667-0.376,8.082-0.639,12.279,2.33c1.821,1.285,3.182,3.042,4.038,5.179
				c4.993-1.334,12.156-1.151,17.462,5.376c5.576,6.857,2.59,17.219,2.46,17.658C595.968,389.556,594.689,390.458,593.305,390.458z"
				/>
		</g>
	</g>
	<path d="M337.208,368.545c0-1.884-1.524-3.408-3.409-3.408H222.394c-1.881,0-3.409,1.524-3.409,3.408
		c0,2.044,0.144,50.508,12.652,90.881c9.027,29.139,7.755,88.188,7.742,88.78c-0.023,0.916,0.326,1.805,0.969,2.46
		c0.639,0.659,1.521,1.028,2.437,1.028h70.623c0.919,0,1.797-0.369,2.44-1.028c0.639-0.655,0.989-1.544,0.969-2.46
		c-0.013-0.592-1.285-59.642,7.742-88.78C337.065,419.054,337.208,370.589,337.208,368.545z M330.341,371.954
		c-0.146,6.354-0.715,20.967-2.806,38.289h-98.87c-2.09-17.319-2.663-31.935-2.809-38.289H330.341z"/>
	<path d="M1180.955,390.458h-64.908h-64.908c0,0-1.478,30.273,10.226,57.968c8.711,20.607,44.573,29.764,44.573,29.764
		l-4.257,13.298l7.981,7.981v27.045c-4.407,2.313-7.449,6.881-7.449,12.203c0,1.584,0.323,3.085,0.813,4.503
		c-8.908,3.18-19.649,7.227-22.762,9.33c-5.585,3.775-5.984,6.198-5.984,6.198h41.764h0.004h41.764c0,0-0.399-2.423-5.984-6.198
		c-3.112-2.104-13.851-6.15-22.762-9.33c0.489-1.418,0.813-2.919,0.813-4.503c0-5.322-3.039-9.89-7.446-12.203V499.47l7.979-7.981
		l-4.254-13.298c0,0,35.862-9.157,44.57-29.764C1182.429,420.731,1180.955,390.458,1180.955,390.458z"/>
	<g>
		<path d="M735.174,651.914c0-14.933,24.784-33.42,24.784-33.42l-10.535-12.083h-55.99h-8.441h-50.805H629h-35.703
			c-2.756,0-11.144,0-15.844,35.497c-4.513,34.085-3.119,91.39,24.825,117.004c-1.728,8.654-2.144,16.373-0.54,22.415
			c8.674,32.703,22.924,42.659,22.924,42.659h60.328h8.441h60.328c0,0,14.249-9.956,22.924-42.659
			C785.355,748.62,735.174,666.85,735.174,651.914z M606.25,743.77c-6.441-7.702-11.281-18.583-14.443-32.613
			c-8.421-37.407-1.238-81.86,3.379-90.528h25.97c6.407,5.279,22.095,19.402,22.095,31.286
			C643.25,662.562,617.75,707.179,606.25,743.77z"/>
		<path d="M726.659,601.432c-4.44-10.032-19.31-17.422-37.021-17.422c-17.708,0-32.581,7.39-37.024,17.422H726.659z"/>
	</g>
	<g>
		<polygon points="436.191,562.095 436.191,548.088 414.675,548.088 393.162,548.088 393.162,562.095 414.675,562.095 		"/>
		<path d="M431.887,609.57c0-12.818,0-43.678,0-43.678h-17.212h-17.209c0,0,0,30.859,0,43.678s-25.817,29.911-25.817,47.473
			c0,17.565,0,133.88,0,145.274c0,11.394,1.229,17.564,9.423,17.564c8.195,0,33.603,0,33.603,0s25.411,0,33.609,0
			c8.192,0,9.423-6.171,9.423-17.564c0-11.395,0-127.709,0-145.274C457.707,639.481,431.887,622.389,431.887,609.57z
			 M414.675,771.693c-12.193,0-22.076-24.231-22.076-54.119s9.883-54.124,22.076-54.124c12.192,0,22.075,24.236,22.075,54.124
			S426.867,771.693,414.675,771.693z"/>
	</g>
	<g>
		<path d="M954.729,539.044h14.337h14.339c2.803,0,5.076-2.273,5.076-5.076s-2.273-5.073-5.076-5.073h-14.339h-14.337
			c-2.803,0-5.076,2.271-5.076,5.073S951.926,539.044,954.729,539.044z"/>
		<path d="M990.588,629.662c-2.533-11.993-7.596-85.166-7.596-85.166h-13.927h-13.927c0,0-5.06,73.173-7.593,85.166
			c-2.533,11.996-27.854,41.983-25.317,74.367c2.533,32.388,11.391,107.961,11.391,107.961s13.93,11.996,35.446,11.996
			c21.52,0,35.449-11.996,35.449-11.996s8.861-75.573,11.394-107.961C1018.438,671.646,993.121,641.658,990.588,629.662z
			 M969.065,739.879c-18.118,0-32.811-14.842-32.811-33.149s14.692-33.149,32.811-33.149c18.12,0,32.81,14.842,32.81,33.149
			S987.186,739.879,969.065,739.879z"/>
	</g>
	<path d="M444.133,174.647l36.002-8.694l-2.4-9.939l-38.818,9.374c-1.748,0.419-3.142,1.728-3.678,3.441l-7.669,24.535h-59.026
		l0.789,5.802c3.978,29.259,3.219,132.655,3.208,133.617c-0.053,2.28,0.829,4.524,2.417,6.151c1.595,1.634,3.818,2.57,6.102,2.57
		h70.623c2.284,0,4.507-0.936,6.095-2.566c1.594-1.631,2.477-3.875,2.423-6.108c-0.013-1.009-0.772-104.396,3.206-133.664
		l0.789-5.802h-25.913L444.133,174.647z M424.371,203.589l-6.391,20.451h-36.565c-0.346-7.822-0.772-14.842-1.298-20.451H424.371z
		 M452.624,203.589c-0.529,5.609-0.955,12.629-1.301,20.451h-22.628l6.391-20.451H452.624z"/>
	<path d="M762.435,171.848c-19.186,0-34.97,14.772-36.628,33.536h-52.715l-10.488-33.549c-0.536-1.714-1.931-3.022-3.678-3.445
		l-38.818-9.374l-2.4,9.939l36.002,8.694l8.668,27.734h-29.722c-1.937,0-3.708,1.098-4.573,2.833s-0.676,3.808,0.493,5.359
		c20.934,27.777,60.258,76.155,61.932,86.461c1.371,8.428-0.862,23.49-2.833,36.778c-0.236,1.584-0.469,3.152-0.692,4.69
		l-31.266,8.971c-2.33,0.852-3.711,3.252-3.279,5.695c0.433,2.439,2.556,4.221,5.036,4.221h80.143c2.48,0,4.604-1.781,5.036-4.221
		c0.434-2.443-0.948-4.843-3.278-5.695l-30.906-8.971c-0.223-1.538-0.456-3.105-0.688-4.69c-1.975-13.288-4.208-28.35-2.836-36.778
		c1.188-7.303,23.659-33.962,41.118-58.494c4.937,2.47,10.485,3.895,16.373,3.895c20.288,0,36.795-16.507,36.795-36.795
		C799.229,188.354,782.723,171.848,762.435,171.848z M743.611,227.373c-3.202-3.219-5.559-7.26-6.787-11.764h15.412
		C749.76,218.951,746.817,222.952,743.611,227.373z M726.322,215.609c1.521,7.896,5.582,14.876,11.284,20.108
		c-0.473,0.663-0.948,1.332-1.425,2.004h-52.981l-6.914-22.112H726.322z M665.572,215.609l6.914,22.112h-13.578
		c-6.051-8.521-11.753-16.307-16.054-22.112H665.572z M762.435,235.211c-3.661,0-7.153-0.746-10.332-2.09
		c5.093-7.043,10.039-13.737,14.416-19.546c1.165-1.548,1.358-3.625,0.493-5.359s-2.637-2.833-4.577-2.833h-26.346
		c1.614-13.115,12.802-23.311,26.346-23.311c14.649,0,26.569,11.92,26.569,26.569C789.004,223.292,777.084,235.211,762.435,235.211z
		"/>
	<g>
		<polygon points="917.508,258.255 937.959,360.391 961.716,360.391 985.472,360.391 1005.923,258.255 961.716,258.255 		"/>
		<polygon points="961.716,232.832 908.987,232.832 908.987,250.36 961.716,250.36 1014.444,250.36 1014.444,232.832 		"/>
		<path d="M953.59,219.038h-29.69v6.005h37.816h37.816v-6.005h-35.228l-11.62-42.477c-0.535-1.96-1.934-3.455-3.681-3.934
			l-38.815-10.712l-2.399,11.357l35.998,9.936L953.59,219.038z"/>
	</g>
</g>
</svg>
